<svg width="25" height="13" viewBox="0 0 25 13" fill="none" xmlns="http://www.w3.org/2000/svg">
<g id="Group 2">
<path id="Vector" d="M3.15107 12.1195C1.41091 12.1195 0 10.7086 0 8.96843V3.15107C0 1.41091 1.41091 0 3.15107 0H19.3266C21.0667 0 22.4776 1.41091 22.4776 3.15107V8.96843C22.4776 10.7086 21.0667 12.1195 19.3266 12.1195H3.15107ZM1.11903 3.15107V8.96843C1.11903 10.0895 2.028 10.9984 3.14905 10.9984H3.15107H19.3266C20.4466 10.9964 21.3525 10.0875 21.3525 8.96843V3.15107C21.3515 2.03103 20.4436 1.12307 19.3235 1.12105H3.15006C2.02901 1.12105 1.11903 2.03002 1.11802 3.15107H1.11903ZM3.8237 9.6148C3.09249 9.6148 2.50066 9.02195 2.50066 8.29074V3.8237C2.50066 3.09249 3.0935 2.49965 3.8237 2.49965H14.9191C15.6493 2.50167 16.2401 3.0935 16.2401 3.82269V8.29478C16.2351 9.02195 15.6463 9.61076 14.9191 9.6148H3.8237ZM22.8826 4.15093C23.6795 4.43372 24.24 5.18108 24.24 6.05874C24.24 6.93639 23.6795 7.68376 22.8968 7.96251L22.8826 7.96655V4.15093Z" fill="#2E2E2E"/>
</g>
</svg>
