<svg width="12" height="12" viewBox="0 0 12 12" fill="none" xmlns="http://www.w3.org/2000/svg">
<g id="Group 3">
<path id="Vector" fill-rule="evenodd" clip-rule="evenodd" d="M4.22334 4.31125H3.77674C3.38641 4.31125 3.0875 4.61016 3.0875 5.0462V10.3983C3.0875 10.7887 3.38289 11.1333 3.77674 11.1333H4.22334C4.61367 11.1333 4.95829 10.7887 4.95829 10.3983V5.0462C4.95829 4.60664 4.61367 4.31125 4.22334 4.31125ZM10.7008 0H10.2542C9.86383 0 9.51921 0.344619 9.51921 0.734952V10.3948C9.51921 10.7852 9.86383 11.1298 10.2542 11.1298H10.7008C11.0911 11.1298 11.39 10.7852 11.39 10.3948V0.734952C11.39 0.295387 11.0946 0 10.7008 0ZM7.46205 2.01145H7.01545C6.62512 2.01145 6.32622 2.2998 6.32622 2.70069V10.3948C6.32622 10.7852 6.62512 11.1298 7.01545 11.1298H7.46205C7.85238 11.1298 8.197 10.7852 8.197 10.3948V2.69717C8.197 2.2998 7.85238 2.00793 7.46205 2.00793V2.01145ZM1.17452 6.42116H0.734952C0.344619 6.42116 0 6.76578 0 7.15611V10.3948C0 10.7852 0.344619 11.1298 0.734952 11.1298H1.17452C1.37847 11.1298 1.51914 11.0735 1.66683 10.9329C1.81452 10.7852 1.9165 10.5882 1.9165 10.3913V7.1526C1.9165 6.76226 1.57188 6.41764 1.17452 6.41764V6.42116Z" fill="#2E2E2E"/>
</g>
</svg>
