<svg width="15" height="15" viewBox="0 0 15 15" fill="none" xmlns="http://www.w3.org/2000/svg">
<g id="Group 127">
<circle id="Ellipse 11" cx="7.5" cy="7.5" r="7.5" fill="#1262A0"/>
<path id="Vector" d="M7.25457 11.4485C7.18756 10.363 7.12391 9.27421 7.0435 7.92405H3.46207C3.8641 6.83521 4.5576 7.18699 5.07019 7.14009C5.66319 7.08648 6.26289 7.12669 7.12391 7.12669V3.46149C8.21274 3.86353 7.86097 4.55703 7.90787 5.06962C7.96147 5.66262 7.92127 6.26232 7.92127 7.12334H11.5865C11.1844 8.21217 10.4943 7.86039 9.97834 7.9073C9.38534 7.96425 8.78564 7.9207 7.92462 7.9207V11.4385C7.70015 11.4418 7.47569 11.4485 7.25457 11.4519V11.4485Z" fill="white" stroke="white" stroke-width="0.5"/>
</g>
</svg>
