<svg width="18" height="14" viewBox="0 0 18 14" fill="none" xmlns="http://www.w3.org/2000/svg">
<g id="Group">
<path id="Vector" d="M9.18986 13.5819C9.65885 13.5819 10.039 13.2017 10.039 12.7327C10.039 12.2638 9.65885 11.8836 9.18986 11.8836C8.72088 11.8836 8.3407 12.2638 8.3407 12.7327C8.3407 13.2017 8.72088 13.5819 9.18986 13.5819Z" fill="#2E2E2E"/>
<path id="Vector_2" d="M9.18985 8.48682C8.0908 8.48679 7.03456 8.91294 6.24324 9.67565C6.08109 9.83217 5.98776 10.0467 5.98378 10.272C5.97979 10.4974 6.06549 10.7151 6.22201 10.8772C6.37854 11.0394 6.59307 11.1327 6.8184 11.1367C7.04374 11.1407 7.26143 11.055 7.42359 10.8984C7.90583 10.4569 8.53598 10.212 9.18985 10.212C9.84372 10.212 10.4739 10.4569 10.9561 10.8984C11.1183 11.055 11.336 11.1407 11.5613 11.1367C11.7866 11.1327 12.0012 11.0394 12.1577 10.8772C12.3142 10.7151 12.3999 10.4974 12.3959 10.272C12.392 10.0467 12.2986 9.83217 12.1365 9.67565C11.3451 8.91294 10.2889 8.48679 9.18985 8.48682Z" fill="#2E2E2E"/>
<path id="Vector_3" d="M9.18983 4.24096C8.16421 4.24163 7.14922 4.44874 6.20533 4.84993C5.26144 5.25112 4.40795 5.83819 3.69572 6.57617C3.61822 6.65813 3.55762 6.75456 3.51738 6.85994C3.47714 6.96532 3.45806 7.0776 3.46121 7.19036C3.46437 7.30312 3.4897 7.41415 3.53576 7.51712C3.58183 7.62009 3.64772 7.71297 3.72969 7.79048C3.89522 7.947 4.11615 8.03135 4.34388 8.02498C4.45663 8.02183 4.56767 7.9965 4.67064 7.95043C4.77361 7.90437 4.86649 7.83847 4.944 7.75651C5.49849 7.18122 6.16328 6.72363 6.89862 6.41108C7.63397 6.09853 8.42478 5.93744 9.22379 5.93744C10.0228 5.93744 10.8136 6.09853 11.549 6.41108C12.2843 6.72363 12.9491 7.18122 13.5036 7.75651C13.5822 7.83675 13.676 7.90058 13.7795 7.94431C13.883 7.98804 13.9942 8.01079 14.1065 8.01126C14.2724 8.01063 14.4346 7.96139 14.5728 7.86962C14.7111 7.77786 14.8195 7.6476 14.8845 7.49493C14.9495 7.34226 14.9684 7.17388 14.9388 7.01059C14.9092 6.84731 14.8324 6.69628 14.7179 6.57617C14.0017 5.83407 13.1427 5.2446 12.1927 4.84327C11.2426 4.44195 10.2212 4.23706 9.18983 4.24096Z" fill="#2E2E2E"/>
<path id="Vector_4" d="M17.4438 3.33231C15.2279 1.19459 12.269 0 9.18994 0C6.11092 0 3.152 1.19459 0.936036 3.33231C0.792728 3.49166 0.714973 3.6993 0.718368 3.91359C0.721763 4.12787 0.806057 4.33295 0.95434 4.48768C1.10262 4.64241 1.30393 4.73535 1.51788 4.74785C1.73182 4.76036 1.94259 4.69151 2.10789 4.55511C4.00798 2.71846 6.54728 1.69182 9.18994 1.69182C11.8326 1.69182 14.3719 2.71846 16.272 4.55511C16.4294 4.70684 16.6393 4.792 16.8579 4.79287C16.9723 4.79244 17.0854 4.7689 17.1905 4.72366C17.2956 4.67842 17.3904 4.61243 17.4693 4.52963C17.6241 4.36719 17.7084 4.15007 17.7036 3.92571C17.6988 3.70136 17.6054 3.48802 17.4438 3.33231Z" fill="#2E2E2E"/>
</g>
</svg>
