<svg width="20" height="15" viewBox="0 0 20 15" fill="none" xmlns="http://www.w3.org/2000/svg">
<g id="Layer_1" clip-path="url(#clip0_1_231)">
<g id="Group">
<path id="Vector" d="M19.4468 13.7212H0V14.04H19.4468V13.7212Z" fill="white"/>
<path id="Vector_2" d="M16.4246 13.7212H3.02223V11.4354H2.70343V14.04H16.7434V4.97011H16.4246V13.7212ZM2.70343 0V8.15493H3.02223V0.318801H16.4246V1.29114H16.7434V0H2.70343Z" fill="white" stroke="white" stroke-width="0.5"/>
</g>
<path id="Vector_3" d="M2.90428 11.1325C2.90428 11.1325 2.89472 11.1325 2.89153 11.1325C2.83096 11.1294 2.77995 11.1007 2.73213 11.0497L1.77573 9.96892C1.71835 9.90197 1.64821 9.76807 1.8363 9.6023L6.05084 5.85957L5.37499 5.09445C5.26341 4.97012 5.3176 4.85216 5.35905 4.79477C5.42918 4.69595 5.52482 4.66725 5.58858 4.6545L9.40144 3.87982C9.42694 3.87344 9.45245 3.87025 9.47795 3.86388C9.59591 3.84794 9.65967 3.90213 9.68198 3.92764C9.71067 3.95952 9.75212 4.02965 9.71386 4.14123L8.46416 7.91903C8.43547 8.00191 8.38446 8.06568 8.30795 8.10712C8.20275 8.1645 8.09117 8.14856 8.01466 8.06567L7.32924 7.29099L3.11469 11.0305C3.05412 11.0847 2.99036 11.1325 2.90747 11.1325H2.90428ZM2.06903 9.82227L2.91704 10.7787L7.31967 6.87017L7.4727 6.97537L8.17087 7.766L9.35043 4.21456L5.68104 4.96055L6.39834 5.77349L6.48123 5.89145L6.3824 5.99666L6.23894 5.91058L6.34414 6.02854L2.06903 9.81908V9.82227Z" fill="white" stroke="white" stroke-width="0.5"/>
<path id="Vector_4" d="M10.4439 9.33768C10.3738 9.33768 10.3291 9.3058 10.3068 9.28349C10.2813 9.26117 10.2271 9.19422 10.2526 9.07945C10.259 9.05395 10.2654 9.02845 10.2718 9.00294L11.2186 5.23152C11.2345 5.16776 11.2664 5.07531 11.3716 5.00836C11.4322 4.97011 11.5501 4.92229 11.6713 5.03706L12.4045 5.75117L16.3353 1.70877C16.5107 1.52706 16.6414 1.60357 16.7051 1.66414L17.7412 2.67155C17.7891 2.71937 17.8146 2.77357 17.8146 2.83095C17.8146 2.92022 17.7636 2.98717 17.703 3.04774L13.7754 7.08695L14.5182 7.80744C14.5979 7.88395 14.6106 7.99872 14.5469 8.10073C14.5022 8.17406 14.4353 8.22507 14.3492 8.24738L10.5172 9.32493C10.4917 9.33131 10.4662 9.33449 10.4439 9.33449V9.33768ZM11.5183 5.33992L10.6065 8.97106L14.2121 7.95727L13.4119 7.16665L13.3609 7.06463L13.4374 6.97537L17.4575 2.84052L16.5394 1.95106L12.4205 6.18793L12.3089 6.09866C12.2898 6.08272 12.277 6.07316 12.2643 6.0636L11.5183 5.33992Z" fill="white" stroke="white" stroke-width="0.5"/>
</g>
<defs>
<clipPath id="clip0_1_231">
<rect width="19.4468" height="14.04" fill="white"/>
</clipPath>
</defs>
</svg>
