<svg width="20" height="20" viewBox="0 0 20 20" fill="none" xmlns="http://www.w3.org/2000/svg">
<g id="Layer_1" clip-path="url(#clip0_11_750)">
<path id="Vector" d="M10.0378 -0.000976302C12.9949 0.0619167 15.5937 1.03829 17.6638 3.23099C19.1832 4.84057 20.0195 6.76644 20.0006 8.99029C19.978 11.5707 18.9555 13.7274 17.013 15.4353C16.8744 15.5568 16.8134 15.6716 16.8152 15.8578C16.8244 16.9698 16.8225 18.0823 16.8183 19.1942C16.8164 19.7554 16.3665 20.1199 15.8708 19.9624C15.7585 19.927 15.6523 19.8543 15.5589 19.7798C14.7256 19.1148 13.8935 18.4487 13.0688 17.7727C12.9418 17.6689 12.8344 17.6463 12.6799 17.6842C10.4737 18.2227 8.29375 18.1299 6.17299 17.3142C3.44972 16.267 1.40894 14.4595 0.477368 11.6483C-0.628792 8.31251 0.227078 5.38035 2.67382 2.9208C4.35564 1.23063 6.44831 0.345241 8.80836 0.077182C8.92191 0.0643592 9.03485 0.0478727 9.149 0.0411559C9.43775 0.0246694 9.72711 0.0130678 10.0384 -0.00158691L10.0378 -0.000976302ZM15.3562 17.7391C15.3562 16.8995 15.3629 16.1228 15.3531 15.3461C15.3495 15.0366 15.4679 14.8113 15.7054 14.6201C15.9831 14.396 16.2646 14.1689 16.5075 13.9088C18.1228 12.1771 18.834 10.1431 18.4232 7.7886C18.0758 5.79312 16.9611 4.26354 15.3263 3.11803C13.407 1.77285 11.2551 1.28192 8.93534 1.53899C6.82009 1.77346 4.96183 2.59413 3.49977 4.1579C1.54202 6.24986 0.934606 8.69475 1.94004 11.4126C2.79164 13.714 4.53573 15.1593 6.80055 15.9885C8.75587 16.7048 10.7466 16.7347 12.744 16.1528C13.0779 16.0557 13.352 16.1119 13.6115 16.3341C13.8716 16.557 14.1432 16.7664 14.4106 16.9814C14.7109 17.2232 15.0125 17.4638 15.3568 17.7397L15.3562 17.7391Z" fill="#515151"/>
</g>
<defs>
<clipPath id="clip0_11_750">
<rect width="20" height="20" fill="white"/>
</clipPath>
</defs>
</svg>
