<svg width="21" height="20" viewBox="0 0 21 20" fill="none" xmlns="http://www.w3.org/2000/svg">
<path id="Vector" d="M11.0843 0.424399L13.1413 6.74703C13.2225 6.99866 13.4596 7.17139 13.7245 7.17139H20.3848C20.9787 7.17139 21.2265 7.93053 20.7458 8.28025L15.3586 12.189C15.1429 12.3446 15.0531 12.6219 15.1364 12.8735L17.1935 19.1961C17.3772 19.7612 16.73 20.2303 16.2494 19.8806L10.8621 15.9719C10.6464 15.8162 10.3559 15.8162 10.1401 15.9719L4.75286 19.8806C4.27224 20.2303 3.625 19.7591 3.80871 19.1961L5.86577 12.8735C5.94694 12.6219 5.85723 12.3446 5.64362 12.189L0.254236 8.27812C-0.226387 7.9284 0.0214009 7.16925 0.615237 7.16925H7.2756C7.54261 7.16925 7.77758 6.99866 7.85875 6.7449L9.91582 0.424399C10.0995 -0.140693 10.9006 -0.140693 11.0843 0.424399Z" fill="url(#paint0_linear_11_732)"/>
<defs>
<linearGradient id="paint0_linear_11_732" x1="3.99117e-05" y1="9.99898" x2="21" y2="9.99898" gradientUnits="userSpaceOnUse">
<stop stop-color="#ECAC1A"/>
<stop offset="0.32" stop-color="#E7BA1E"/>
<stop offset="0.68" stop-color="#FFE864"/>
<stop offset="1" stop-color="#F5C635"/>
</linearGradient>
</defs>
</svg>
